<svg version="1.1" id="Layer_1" xmlns="http://www.w3.org/2000/svg" xmlns:xlink="http://www.w3.org/1999/xlink" x="0px" y="0px"
	 width="100%" viewBox="0 0 1007 1003" enable-background="new 0 0 1007 1003" xml:space="preserve">
<path fill="#FFFFFF" opacity="1.000000" stroke="none" 
	d="
M1.000000,351.000000 
	C1.000000,235.333344 1.019554,120.166672 0.904744,5.000136 
	C0.901331,1.576268 1.576466,0.904976 4.999987,0.906012 
	C337.999908,1.006801 670.999878,1.006798 1003.999817,0.906042 
	C1007.422852,0.905006 1008.095032,1.576073 1008.093994,4.999866 
	C1007.993164,336.666443 1007.993225,668.333069 1008.093994,999.999695 
	C1008.095032,1003.422424 1007.424316,1004.095093 1004.000305,1004.094055 
	C671.000366,1003.993225 338.000366,1003.993225 5.000430,1004.093933 
	C1.577909,1004.094971 0.903931,1003.424805 0.905592,1000.000366 
	C1.010463,783.833618 1.000000,567.666809 1.000000,351.000000 
z"/>
<path fill="#000000" opacity="1.000000" stroke="none" 
	d="
M694.849243,42.017891 
	C707.392578,46.440781 718.518066,53.066544 730.245911,58.389946 
	C735.387329,60.723652 740.713440,63.258331 745.463867,66.876587 
	C751.919067,71.793320 759.288574,75.514503 766.291504,79.705750 
	C773.362854,83.937981 780.629639,87.578239 787.125122,93.051689 
	C793.379333,98.321800 800.730164,102.671951 807.891479,106.965019 
	C814.478394,110.913811 818.876892,117.421089 825.186584,121.621109 
	C833.907593,127.426208 841.618835,134.240784 848.706482,141.989456 
	C853.885315,147.651337 860.303040,152.160553 865.860657,157.503769 
	C868.643677,160.179367 870.616333,163.676819 873.169250,166.616959 
	C879.306152,173.684738 886.196838,180.096390 891.546509,187.849976 
	C895.073120,192.961319 898.398987,198.287720 902.946655,202.545395 
	C912.848022,211.815155 918.045410,224.362473 925.999146,234.975266 
	C936.690063,249.240250 943.611084,265.627045 952.287292,281.026184 
	C958.070435,291.290649 962.744568,301.944244 967.030762,312.752411 
	C970.781189,322.209320 974.339478,331.802673 977.604675,341.485382 
	C979.828552,348.079926 983.237305,354.541840 984.791809,361.332825 
	C987.227417,371.972351 990.510986,382.391479 992.288879,393.245361 
	C993.572876,401.084656 995.727539,408.900146 997.303955,416.760437 
	C999.409912,427.261017 1001.083252,437.847870 1001.976196,448.528992 
	C1002.708374,457.287384 1005.220337,465.738220 1005.285583,474.678894 
	C1005.394836,489.646332 1005.517273,504.610352 1005.286682,519.576843 
	C1005.263672,521.067139 1005.075867,522.554138 1005.003906,524.044495 
	C1004.344116,537.713379 1001.926208,551.171936 1000.343811,564.726807 
	C999.682739,570.389465 998.850769,576.066467 997.798157,581.601685 
	C996.448303,588.700500 995.276611,595.868469 993.560364,602.897949 
	C990.293701,616.277832 986.893860,629.621643 983.130188,642.880310 
	C981.312439,649.283875 977.832031,654.869507 975.797119,661.174438 
	C971.582886,674.231750 966.917358,687.161072 961.114929,699.655457 
	C955.922668,710.836060 949.849976,721.546143 943.970825,732.345276 
	C939.911255,739.802063 937.271484,748.044739 931.784363,754.725586 
	C923.451111,764.871765 916.830505,776.220764 909.616211,787.122925 
	C903.186218,796.839844 894.388550,804.631592 888.312744,814.437866 
	C883.517090,822.177917 876.276733,827.492798 870.763306,834.480469 
	C866.859558,839.428162 862.872070,844.417542 858.142639,848.759216 
	C855.392151,851.284302 852.145386,853.201416 849.641052,855.927673 
	C838.984070,867.529175 826.149597,876.567078 814.270325,886.733093 
	C806.675781,893.232361 798.545166,898.998596 790.833679,905.296448 
	C786.652527,908.711121 781.642883,911.569702 776.920471,914.467773 
	C772.033997,917.466614 767.133972,920.873840 762.395264,924.310852 
	C755.214661,929.519043 746.737976,932.317017 739.412048,937.191833 
	C729.070984,944.072754 717.799316,949.217102 706.719299,954.704468 
	C701.431458,957.323303 695.952515,959.572632 690.489868,961.818542 
	C679.975708,966.141479 669.522400,970.649963 658.837524,974.510315 
	C647.551941,978.587830 636.160400,982.337524 624.460815,985.269104 
	C618.339844,986.802856 612.119995,988.571350 606.054749,990.739624 
	C598.245789,993.531311 589.763062,994.549500 581.505066,995.943726 
	C572.542175,997.456848 563.503967,998.523010 554.499084,999.787292 
	C550.280090,1000.379639 545.998657,1000.464783 541.773438,1000.811340 
	C520.739197,1002.536377 499.547668,1003.088074 478.565979,1001.616455 
	C463.918091,1000.588989 449.119598,999.402832 434.517639,996.385803 
	C426.211426,994.669495 417.271576,994.131958 409.349304,991.546082 
	C400.789612,988.752258 392.069214,986.525574 383.429474,984.390930 
	C364.547089,979.725586 346.628265,972.293579 328.205475,966.354736 
	C322.723419,964.587646 317.561218,961.108521 312.147644,958.640137 
	C301.291809,953.690186 290.324097,948.983337 279.508270,943.948975 
	C274.415405,941.578430 270.052094,937.937683 265.066681,935.226990 
	C254.935669,929.718506 244.805908,924.093262 235.439270,917.201416 
	C223.320984,908.284851 210.720825,900.022705 198.614456,891.090759 
	C192.927383,886.894836 188.313583,881.200623 182.500870,877.228027 
	C171.828003,869.933777 163.578308,860.016357 153.748871,851.808289 
	C146.254303,845.549805 140.413177,837.280823 134.010086,829.758484 
	C130.735001,825.910950 126.337479,823.353027 123.348907,819.063232 
	C118.336502,811.868530 112.773132,805.013367 106.990715,798.410156 
	C99.050552,789.343079 92.556778,779.213196 86.076134,769.200806 
	C78.683220,757.778992 70.388725,746.887634 64.730438,734.265381 
	C62.022690,728.224976 58.812069,722.175049 54.730743,716.573303 
	C51.749615,712.481567 50.202339,706.814697 47.993999,701.860840 
	C41.667202,687.668091 37.176823,672.743958 31.002741,658.520813 
	C26.293543,647.672363 24.402294,636.130127 20.818895,625.048706 
	C17.540882,614.911743 15.490195,604.476868 13.428843,594.167297 
	C11.217463,583.107422 8.909480,571.948059 7.900260,560.609985 
	C7.277430,553.612732 7.053210,546.432556 5.725332,539.665894 
	C2.530403,523.384949 4.024881,507.066895 3.565529,490.773499 
	C3.359801,483.476257 2.521929,475.820679 4.302419,468.930176 
	C7.102198,458.095001 6.971962,447.026031 8.639197,436.138184 
	C10.059935,426.860107 11.637808,417.570587 13.188464,408.312256 
	C13.905556,404.030823 14.878145,399.637726 16.511467,395.373291 
	C17.933807,391.659698 17.629562,387.191620 18.889647,383.071838 
	C22.308048,371.895508 24.113621,360.109741 28.538643,349.382324 
	C37.010674,328.843811 43.644001,307.525848 54.022076,287.786224 
	C57.314739,281.523376 61.285141,275.591888 64.252876,269.187866 
	C72.972496,250.371964 85.670883,234.064758 96.795700,216.772095 
	C105.317123,203.526199 115.249092,191.280258 124.842735,178.810593 
	C127.001511,176.004654 130.133850,173.924088 132.913116,171.624512 
	C137.538116,167.797852 139.927780,162.164886 144.305603,158.063782 
	C155.593140,147.489670 165.892838,135.741028 177.890778,126.080635 
	C188.834946,117.268723 198.753098,107.072281 211.268066,100.132233 
	C219.291473,95.682945 226.116562,89.331764 234.246948,84.814919 
	C243.587311,79.625877 253.180145,74.633209 261.964142,68.707626 
	C274.539856,60.224228 288.952026,55.763752 301.847168,48.147003 
	C305.910248,45.747066 310.811066,44.775177 315.067230,42.466721 
	C327.245239,35.861591 340.224518,31.058117 353.411469,27.110178 
	C366.607666,23.159485 379.995300,19.775784 393.460327,16.683453 
	C400.613647,15.040635 407.766998,13.105250 414.982239,11.536235 
	C425.083405,9.339649 435.199799,7.363731 445.457703,5.887813 
	C477.463165,1.282836 509.629852,3.158267 541.724182,3.238573 
	C553.172058,3.267218 564.628418,5.925271 576.052490,7.579120 
	C585.182251,8.900817 594.304749,10.334373 603.360779,12.079615 
	C608.368591,13.044702 613.235535,14.617294 618.104797,16.341288 
	C626.243164,19.222744 634.894592,20.616251 643.205994,23.058315 
	C653.307190,26.026278 663.465393,28.789639 673.076904,33.357388 
	C677.190796,35.312428 681.841797,36.391293 686.249573,37.846233 
	C689.278564,38.846088 691.082031,41.934940 694.849243,42.017891 
z"/>
<path fill="#FFFFFF" opacity="1.000000" stroke="none" 
	d="
M475.766296,611.661255 
	C466.371918,613.645020 458.241821,618.029053 449.591248,620.920532 
	C436.344391,625.348206 423.620819,631.350830 412.263916,639.306824 
	C405.530792,644.023682 396.805847,646.326233 392.250031,654.109497 
	C391.257935,655.804382 388.836212,655.486389 387.698120,654.765625 
	C383.563293,652.147034 378.916656,651.794922 374.347107,650.985046 
	C372.859924,650.721497 371.570709,649.886780 372.237000,648.361877 
	C373.787750,644.813049 372.941010,641.175598 372.943787,637.616028 
	C373.015198,546.312622 373.090424,455.008881 372.790314,363.706451 
	C372.770996,357.827759 375.244476,355.911652 379.709167,355.163818 
	C386.993347,353.943695 393.580322,351.086548 399.537079,347.011108 
	C406.889038,341.981140 412.491425,345.932983 418.266479,349.794861 
	C426.507141,355.305603 435.629517,359.191986 444.241577,364.012482 
	C457.345978,371.347626 471.378693,374.378235 486.348816,375.267975 
	C496.125305,375.849060 505.874725,376.059174 515.610107,375.889832 
	C531.713806,375.609741 548.035583,373.925598 562.338989,366.497406 
	C575.738159,359.538818 590.602356,355.918854 603.257996,347.431702 
	C605.963074,345.617645 609.700684,344.881195 612.899231,347.385864 
	C619.626709,352.653839 627.477783,355.275818 635.682190,356.983795 
	C639.586548,357.796600 642.065857,359.486908 640.983704,363.913696 
	C638.982483,372.099976 640.475891,380.411194 639.996216,388.648926 
	C638.730835,410.380585 639.892822,432.180084 638.773376,453.873993 
	C637.477905,478.976196 637.503113,504.080719 638.305481,529.109009 
	C639.152771,555.539612 637.706421,581.986938 639.320007,608.330933 
	C640.058228,620.383118 638.033997,632.713135 641.922729,644.591064 
	C642.809631,647.300049 641.656738,649.107666 638.335999,650.167236 
	C633.825195,651.606750 628.951538,649.835144 624.550476,652.644653 
	C622.586243,653.898438 621.070190,650.374023 619.044861,649.373901 
	C613.446655,646.609436 607.345032,644.382507 602.291382,641.175537 
	C595.054749,636.583374 587.662537,632.391724 580.038757,628.623779 
	C569.742065,623.534851 558.804871,619.929932 548.142822,615.711670 
	C528.179382,607.813477 507.633240,610.752258 487.273895,610.255371 
	C483.745453,610.169250 479.774841,610.476929 475.766296,611.661255 
z"/>
<path fill="#FFFFFF" opacity="1.000000" stroke="none" 
	d="
M495.438110,70.969307 
	C494.308990,74.421402 494.755035,78.096298 495.243317,81.027603 
	C497.588013,95.102226 493.520599,109.035545 494.984100,123.022469 
	C495.216370,125.242332 494.726440,126.630638 491.951447,127.076874 
	C478.888031,129.177582 466.743347,132.972519 455.225739,140.420517 
	C446.744690,145.904877 439.456055,152.431442 431.816833,158.722717 
	C425.652710,163.799164 422.209076,170.995178 418.031799,177.527817 
	C413.223602,185.047073 413.173279,185.858521 404.517334,182.703644 
	C386.224335,176.036255 367.345856,174.050751 348.148743,175.116241 
	C334.261993,175.887009 320.538544,178.304001 307.411346,183.216049 
	C288.764435,190.193527 272.710052,201.658096 257.178162,213.652481 
	C247.352219,221.240479 237.911407,229.754654 229.999985,239.268814 
	C222.720490,248.022964 215.357239,257.059845 210.854401,267.957886 
	C207.936569,275.019775 202.638351,280.946930 200.710556,288.624451 
	C198.620621,296.947632 197.469315,305.417053 195.907349,313.824890 
	C193.821198,325.054291 195.458969,336.045776 197.086914,347.048798 
	C197.738907,351.455566 199.273315,355.745117 200.572357,360.037689 
	C201.310822,362.477966 201.138916,363.077118 198.190689,364.216003 
	C184.170914,369.631683 169.917572,374.529724 157.979218,384.447632 
	C149.353760,391.613342 141.825775,399.536072 135.691071,408.808716 
	C127.495216,421.196747 121.813843,434.510254 117.531502,448.931854 
	C113.177605,463.594421 112.254433,478.490967 109.712967,492.980072 
	C98.551910,493.558197 87.248901,491.805939 76.038269,493.975891 
	C68.379128,495.458405 66.793610,494.357422 67.044899,486.539001 
	C67.507812,472.136261 69.393372,457.848236 70.706818,443.516113 
	C71.705269,432.621124 74.853897,422.243988 76.215981,411.475739 
	C76.983215,405.410187 80.034233,399.663879 81.707512,393.676239 
	C85.115929,381.479675 89.437141,369.600281 94.039558,357.830811 
	C97.651398,348.594391 100.484383,339.044586 105.957481,330.544006 
	C110.796684,323.028015 112.901970,314.086121 117.782188,306.494263 
	C122.889198,298.549652 125.862175,289.482056 131.811218,281.838776 
	C137.570358,274.439514 141.360199,265.553680 147.044449,257.994446 
	C150.799438,253.000824 155.694946,248.745316 158.806183,243.415833 
	C163.197586,235.893448 168.840225,229.415604 174.599457,223.170547 
	C183.160095,213.887817 191.441589,204.299408 201.004532,195.929214 
	C208.991913,188.938065 216.626053,181.544601 224.707901,174.641464 
	C226.852722,172.809479 229.235916,171.516800 231.523010,170.005676 
	C238.366486,165.484085 243.563019,158.917053 250.693039,154.742661 
	C255.967361,151.654739 261.210419,148.497787 266.318512,145.144821 
	C277.923187,137.527390 289.591736,130.046341 301.877563,123.532173 
	C318.535919,114.699631 335.037231,105.457863 352.861053,99.222107 
	C359.921844,96.751854 367.149750,94.434074 374.052551,91.690552 
	C382.754883,88.231827 391.616486,85.543907 400.550720,82.963028 
	C404.699615,81.764519 408.949768,80.893631 413.183472,80.016426 
	C422.473785,78.091507 431.786194,76.273514 441.082703,74.378036 
	C444.909149,73.597855 448.815735,73.549385 452.683868,72.935684 
	C466.718140,70.709068 480.832947,68.419472 495.438110,70.969307 
z"/>
<path fill="#FFFFFF" opacity="1.000000" stroke="none" 
	d="
M374.022125,826.001282 
	C384.524261,825.263123 394.313416,823.188782 403.670105,819.564941 
	C406.735718,818.377625 411.006439,819.255981 412.787445,815.130310 
	C412.936615,814.784912 414.678009,814.595703 414.988098,816.098328 
	C416.664581,824.220642 421.568054,830.750977 426.132385,837.282532 
	C433.441956,847.742493 443.171783,855.767944 453.476318,863.281860 
	C460.250580,868.221497 467.813354,871.372925 475.318146,874.453735 
	C480.528168,876.592468 486.462769,877.342957 492.061005,878.720154 
	C495.280243,879.512146 495.004700,880.843140 495.003571,882.945557 
	C494.995941,897.112061 495.111389,911.280090 494.911072,925.443726 
	C494.868073,928.486206 497.011078,932.295288 494.680542,934.355408 
	C492.497162,936.285461 488.611725,935.153687 485.535706,934.931580 
	C472.063995,933.958801 458.598724,933.551880 445.262878,930.408081 
	C437.168610,928.499817 428.590546,927.881409 420.515015,925.784729 
	C410.582764,923.205994 400.457397,921.157227 390.760284,917.836182 
	C379.792725,914.079895 369.231293,909.154724 358.352631,905.116638 
	C349.207245,901.721802 340.449005,897.546936 331.697327,893.296936 
	C314.779510,885.081543 297.703430,877.167847 281.717346,867.184998 
	C274.054413,862.399841 266.780548,856.944153 258.899750,852.567810 
	C249.836685,847.534851 242.777817,839.955872 234.347656,834.356628 
	C227.570358,829.855286 221.650803,824.648499 215.777832,819.249634 
	C211.278458,815.113586 207.169647,810.555847 202.766373,806.310974 
	C199.062057,802.739868 194.596741,799.803772 191.492401,795.793823 
	C182.185913,783.772461 170.146927,774.106995 162.549194,760.521240 
	C158.779892,753.781311 151.684616,749.024597 147.778259,742.150269 
	C142.542145,732.935791 136.068909,724.547424 130.749023,715.367981 
	C127.217285,709.273926 122.692986,703.694336 119.658470,697.223999 
	C116.406471,690.289795 112.841110,683.485291 109.942200,676.407166 
	C106.405121,667.770813 100.898018,660.205933 97.555649,651.402405 
	C92.409058,637.846680 87.094505,624.379700 82.958435,610.464294 
	C81.232010,604.656006 78.710938,599.077087 77.103775,593.241760 
	C75.103432,585.978882 73.246208,578.624695 72.099518,571.190796 
	C70.386314,560.084290 68.934143,548.901306 68.189499,537.696411 
	C67.796989,531.790161 66.528008,525.942383 66.904907,519.948303 
	C67.058289,517.509033 67.727242,516.929199 70.055038,516.950012 
	C82.053932,517.057129 94.054604,517.046387 106.053886,516.964233 
	C108.708282,516.946045 110.109200,517.656555 110.033127,520.603882 
	C109.859665,527.324341 112.048843,533.719360 113.090416,540.270081 
	C115.343384,554.439270 119.406563,568.194458 126.116913,580.875732 
	C132.023926,592.038818 139.111572,602.473633 148.016586,611.684204 
	C158.525620,622.553772 170.525177,631.000793 184.699722,636.072571 
	C189.530930,637.801208 193.590668,641.205078 198.754288,642.013611 
	C200.279816,642.252502 199.896271,642.922241 199.506943,644.045288 
	C194.632858,658.104492 194.502441,672.690857 195.037994,687.302734 
	C195.450287,698.551453 197.793137,709.537781 203.038956,719.462158 
	C209.106049,730.940308 214.600494,742.991821 222.844421,753.000549 
	C233.476852,765.909119 244.617477,778.344360 257.952179,788.952576 
	C270.262115,798.745544 283.847656,806.136047 296.928162,814.506531 
	C306.993011,820.947205 318.404358,822.768677 329.788239,825.111206 
	C341.260651,827.471985 352.782715,826.714111 364.304199,827.079773 
	C367.507996,827.181458 370.427429,825.892395 374.022125,826.001282 
z"/>
<path fill="#FFFFFF" opacity="1.000000" stroke="none" 
	d="
M687.788025,112.291748 
	C695.927551,117.556076 704.802429,120.694130 712.689697,125.503059 
	C720.638916,130.349731 729.636597,133.244598 737.018433,139.007156 
	C741.240356,142.302933 745.767639,145.084915 750.263977,147.971527 
	C757.029053,152.314728 763.685120,156.871368 769.976990,161.950775 
	C782.523560,172.079544 795.327087,181.881378 806.816345,193.263626 
	C815.509949,201.876312 824.310303,210.378967 832.224426,219.732834 
	C839.373962,228.183060 846.314697,236.794983 853.181946,245.482117 
	C861.375549,255.846954 867.449585,267.487823 875.120361,278.078888 
	C885.712952,292.704163 892.462830,309.336792 901.190918,324.919128 
	C907.981262,337.041962 912.869751,349.883148 917.956726,362.645874 
	C922.033508,372.873932 924.279968,383.820587 928.124207,394.156158 
	C930.756042,401.232025 933.180420,408.310120 934.248901,415.732910 
	C935.655823,425.507568 937.874451,435.124817 939.174377,444.936249 
	C940.784241,457.086700 941.400879,469.315002 942.983337,481.450958 
	C943.004822,481.615204 942.998840,481.783813 942.996582,481.950287 
	C942.949036,485.443726 944.104675,489.707611 942.504761,492.208832 
	C940.975769,494.599243 936.434204,492.884644 933.234131,492.948822 
	C922.915710,493.155762 912.586365,492.963745 902.276184,493.337097 
	C899.762512,493.428162 900.028870,492.222931 900.028687,490.914124 
	C900.026917,480.908295 898.063477,471.100464 896.855164,461.232880 
	C896.139954,455.391693 893.810791,449.766968 892.573975,443.966736 
	C890.205872,432.861542 884.681274,423.017242 879.676575,413.105682 
	C877.289978,408.379333 872.825745,404.392151 869.354919,400.018158 
	C865.263428,394.862030 861.017090,389.538483 855.839966,385.598877 
	C846.929810,378.818451 837.555664,372.410126 826.655945,369.102448 
	C821.886536,367.655090 817.767456,364.714325 812.764709,363.823334 
	C810.531311,363.425568 810.548279,361.099060 811.335449,359.299713 
	C815.720398,349.275696 816.901855,338.391998 816.586365,327.918518 
	C816.237915,316.354950 816.865173,304.477356 812.744629,293.092072 
	C810.465332,286.794220 809.662720,279.873352 805.948975,274.159973 
	C799.349060,264.006195 793.295959,253.548004 785.772217,243.916000 
	C777.152954,232.881546 767.020386,223.425308 756.488037,214.662048 
	C748.238525,207.798141 739.538818,200.905807 729.087708,196.819687 
	C722.531738,194.256454 717.280273,189.068008 710.869385,185.843231 
	C702.293579,181.529449 693.187073,178.902725 683.979980,177.223816 
	C673.674805,175.344727 663.124573,174.579544 652.529907,174.932999 
	C637.022766,175.450363 621.897400,177.682877 607.349121,183.249496 
	C604.402527,184.376953 603.221008,181.674179 602.143738,180.160629 
	C599.516663,176.469681 597.004517,172.651382 594.589050,168.836670 
	C589.887939,161.412247 584.345337,155.196335 576.956848,150.301743 
	C568.364319,144.609543 560.917908,137.379578 550.807312,133.808014 
	C541.336853,130.462570 531.856689,127.738266 521.851318,127.059219 
	C519.849243,126.923340 518.946838,126.688347 518.958984,124.357086 
	C519.054138,106.049118 519.011719,87.740433 519.011719,68.800339 
	C521.742554,70.279907 524.320618,70.223915 526.811646,69.955452 
	C538.421997,68.704124 549.914612,71.054710 561.203552,72.473434 
	C573.675842,74.040871 586.207275,76.693161 598.615723,79.495934 
	C610.060791,82.081123 621.425659,85.075493 632.152588,89.320076 
	C645.810669,94.724457 659.946533,99.013298 673.137329,105.600548 
	C677.837219,107.947601 683.083252,109.066681 687.788025,112.291748 
z"/>
<path fill="#FFFFFF" opacity="1.000000" stroke="none" 
	d="
M871.261475,600.296814 
	C881.639465,586.671204 888.774780,572.033691 893.337524,555.759766 
	C896.588806,544.163330 898.301636,532.459717 899.901611,520.664795 
	C900.280273,517.874023 901.155090,516.943604 903.865906,516.963867 
	C915.531677,517.051025 927.198486,517.015808 938.864868,516.997253 
	C941.756042,516.992676 942.642456,517.187744 942.322815,521.111816 
	C941.670898,529.114380 941.197632,537.109009 940.082214,545.093018 
	C938.650574,555.340271 937.378357,565.572021 935.471252,575.775452 
	C934.111145,583.052368 932.321350,590.279785 930.667358,597.444580 
	C929.520752,602.411194 926.707581,607.191650 925.250916,612.312805 
	C922.580811,621.699707 919.844360,631.069946 916.960571,640.392944 
	C915.267700,645.865479 912.866638,651.133911 910.634766,656.362244 
	C906.039795,667.126770 899.976074,677.254089 895.083191,687.903931 
	C887.031189,705.430054 875.437988,720.761841 865.557617,737.151917 
	C860.199768,746.039734 852.691833,753.123840 847.043274,761.636353 
	C842.704346,768.175110 838.239441,774.867981 832.803894,780.171997 
	C823.477844,789.272278 816.248596,800.220520 806.537842,808.819824 
	C796.115173,818.049683 786.072144,827.716736 774.104675,835.186951 
	C768.199829,838.872864 763.990295,845.009277 757.836365,848.760803 
	C750.986938,852.936340 744.241638,857.333374 737.778503,862.079956 
	C727.982727,869.273987 717.092834,874.575806 706.720825,880.769043 
	C702.342102,883.383484 697.272827,884.557861 693.012390,887.461548 
	C681.941528,895.006897 669.323792,899.448486 657.221619,904.876343 
	C649.379456,908.393677 640.928223,910.553894 633.089172,914.077148 
	C620.786255,919.606934 607.601868,921.716736 594.706726,924.964172 
	C582.345093,928.077393 569.845520,930.380310 557.196411,932.169800 
	C545.950684,933.760803 534.639954,933.795105 523.411987,935.060730 
	C519.426514,935.509949 518.872131,933.919434 518.917175,930.394043 
	C519.110657,915.230164 518.999268,900.062500 518.999756,884.896179 
	C518.999939,877.952271 519.379761,877.469543 526.360840,877.020752 
	C534.722290,876.483215 541.965881,872.440857 549.680664,869.851196 
	C561.341248,865.937012 570.216125,857.709229 579.751282,850.566528 
	C584.713989,846.849060 588.049438,841.504761 591.001343,836.032227 
	C593.973572,830.522156 597.190308,825.130493 599.856812,819.477966 
	C600.594788,817.913574 601.363586,817.822632 602.366150,818.099976 
	C607.760986,819.593018 613.073486,821.397766 618.496094,822.772644 
	C627.479614,825.050415 636.578003,826.875122 645.884277,826.967651 
	C661.314087,827.121094 676.703369,827.323425 691.853760,823.122192 
	C702.037292,820.298218 711.565735,816.229919 720.492981,810.776367 
	C729.395630,805.338013 738.899719,800.891296 746.975281,794.059143 
	C757.030273,785.552368 767.802795,777.884888 776.604370,767.949158 
	C786.534241,756.739624 794.411072,744.146606 802.318359,731.476746 
	C812.232361,715.591370 815.906128,698.452881 816.098206,680.056885 
	C816.220337,668.359924 815.639343,656.762939 811.776672,645.751587 
	C810.256836,641.419128 813.155518,640.255859 814.973633,639.233154 
	C818.517395,637.239685 822.629272,636.169678 826.596313,635.032715 
	C835.921936,632.359802 843.600342,626.971619 851.367554,621.370239 
	C859.340698,615.620239 865.149780,608.144226 871.261475,600.296814 
z"/>
<path fill="#FFFFFF" opacity="1.000000" stroke="none" 
	d="
M272.769775,229.725647 
	C279.194977,225.350357 285.208344,220.961090 291.639954,217.308228 
	C293.412689,216.301392 293.952057,214.413101 296.305908,213.675095 
	C303.162903,211.525192 303.352722,210.965622 305.907410,217.125336 
	C310.744476,228.788345 314.390320,240.881989 318.012146,252.973022 
	C320.676331,261.866943 323.251007,270.797516 326.312439,279.555542 
	C327.071228,281.726227 326.936981,283.923370 327.881744,286.112366 
	C334.198517,300.747955 336.683197,316.545044 341.358856,331.654053 
	C343.411896,338.288269 339.625214,340.048157 336.286407,340.647675 
	C324.636566,342.739594 314.309296,348.721741 302.795868,351.099823 
	C297.340088,352.226746 292.244171,354.757446 286.786285,356.207336 
	C279.264801,358.205414 271.688171,360.645447 264.792694,364.179199 
	C256.890106,368.229095 248.302765,370.354095 240.422318,374.253876 
	C238.072433,375.416779 236.658844,374.925995 234.746902,373.348602 
	C228.353775,368.074188 225.963364,360.452118 223.196472,353.278687 
	C217.204056,337.742615 217.708282,321.683167 220.733246,305.538544 
	C222.249084,297.448364 223.811569,289.268372 228.102936,282.264160 
	C235.372101,270.399689 241.597168,257.584442 252.368576,248.353561 
	C259.285187,242.426178 264.675812,234.861282 272.769775,229.725647 
z"/>
<path fill="#FFFFFF" opacity="1.000000" stroke="none" 
	d="
M337.127380,665.981995 
	C340.705536,666.695374 341.283264,668.008850 340.393677,671.484009 
	C337.841339,681.454041 336.354279,691.694031 333.889679,701.690125 
	C332.020386,709.271973 329.228333,716.629944 326.814026,724.062744 
	C323.049866,735.651489 320.304779,747.521606 316.463440,759.072144 
	C312.988647,769.520752 309.599152,780.000061 305.928040,790.379578 
	C304.835938,793.467346 301.817169,792.597839 300.717468,790.852783 
	C299.630890,789.128540 298.158203,789.152771 296.875580,788.447510 
	C287.245422,783.152527 277.682892,777.675903 269.685059,770.075562 
	C260.351318,761.205750 250.332794,752.935913 242.856812,742.286621 
	C239.363235,737.310120 236.522491,731.868713 232.947174,726.957397 
	C222.695938,712.875366 219.261658,697.023010 218.818771,679.872498 
	C218.443741,665.349304 221.343460,651.873962 227.550629,638.938538 
	C229.370483,635.145996 232.515213,632.308594 234.967697,628.972107 
	C236.083817,627.453613 237.007141,628.132019 238.242218,628.616333 
	C247.152939,632.110352 256.408203,634.894409 264.949554,639.124451 
	C279.718475,646.438660 295.994476,649.021423 311.169891,654.956665 
	C318.594818,657.860657 325.864258,661.193787 333.599213,663.291687 
	C334.905212,663.645935 336.125702,664.546265 337.127380,665.981995 
z"/>
<path fill="#FFFFFF" opacity="1.000000" stroke="none" 
	d="
M759.632446,632.752930 
	C763.037476,631.150146 766.334351,630.106995 769.111145,628.275330 
	C772.096497,626.305969 773.904602,627.654663 775.907532,629.502869 
	C785.031921,637.922485 789.164001,649.279419 791.470947,660.692078 
	C793.448242,670.473633 794.598328,680.586609 792.478394,691.152649 
	C790.623535,700.396973 787.863159,709.199707 784.851074,717.966431 
	C782.522522,724.743958 777.085571,729.866028 773.427673,735.992676 
	C769.084229,743.267456 763.831848,749.975647 757.653198,755.735474 
	C746.810608,765.843079 737.027344,777.231262 723.515564,784.232544 
	C719.956726,786.076599 716.486816,788.268555 713.240356,790.797241 
	C711.377930,792.247925 708.401367,794.228149 707.713562,788.759277 
	C707.210388,784.758850 704.315491,781.209473 702.587769,777.411255 
	C700.045837,771.823181 699.273315,765.773499 697.041077,760.133606 
	C692.248657,748.024963 689.932922,735.166748 686.622925,722.645142 
	C684.295471,713.840271 682.221375,704.787964 679.565491,696.160583 
	C676.789124,687.141724 676.415161,677.754272 673.387573,668.947876 
	C671.791687,664.305908 674.066589,661.482178 677.816101,661.274719 
	C685.498535,660.849792 692.012268,657.253052 698.977417,654.924622 
	C708.657837,651.688416 718.041870,647.438660 727.869385,644.804077 
	C738.793091,641.875671 748.466675,635.942505 759.632446,632.752930 
z"/>
<path fill="#FFFFFF" opacity="1.000000" stroke="none" 
	d="
M786.769104,357.722931 
	C783.651489,363.816193 781.828674,370.233215 776.230286,374.361176 
	C774.839600,375.386597 774.156433,375.969299 772.089722,375.160797 
	C765.086487,372.421051 758.160522,369.369049 751.329895,366.366058 
	C736.445679,359.822418 720.892090,355.398041 705.644775,350.034546 
	C695.996704,346.640594 686.111145,343.906647 676.270813,341.090942 
	C674.804565,340.671387 673.388733,340.527283 674.074951,338.868256 
	C675.329651,335.834686 673.850769,332.139648 675.351135,329.762543 
	C677.687866,326.060242 676.031799,321.358276 679.654724,317.790131 
	C681.141296,316.326019 681.242920,311.799286 681.853210,308.667206 
	C685.419861,290.362793 691.218323,272.694092 696.573059,254.895508 
	C698.682373,247.884521 700.079163,240.515900 703.236938,234.007065 
	C705.965942,228.381897 706.620544,222.274612 709.161011,216.776947 
	C710.053101,214.846497 709.431335,212.855972 710.392395,211.120621 
	C717.256775,212.047607 721.332703,217.757706 727.039551,220.701553 
	C740.373474,227.579819 750.740173,238.333496 761.074402,248.854889 
	C766.677917,254.559875 771.018860,261.539307 775.801758,268.046204 
	C783.538025,278.570892 788.131775,290.463837 791.545166,302.619781 
	C794.768860,314.100098 795.219482,326.241089 792.967224,338.220703 
	C791.720459,344.852539 789.912781,351.307343 786.769104,357.722931 
z"/>
<path fill="#FFFFFF" opacity="1.000000" stroke="none" 
	d="
M572.001709,177.011566 
	C575.352722,182.003815 578.734558,186.587967 581.965210,191.276321 
	C583.581665,193.622101 582.445251,195.466568 580.137024,196.318542 
	C569.600281,200.207764 562.483154,208.424606 554.456848,215.682205 
	C546.883118,222.530579 541.051697,230.712006 535.116577,238.721664 
	C527.296326,249.275513 521.703186,261.290344 515.956238,273.124969 
	C514.272766,276.591797 511.967010,279.765228 510.391998,283.273193 
	C509.136353,286.069733 508.292328,284.681335 506.998474,283.508759 
	C501.670074,278.679626 500.015930,271.946014 498.125854,265.523743 
	C496.124268,258.722778 492.586700,252.847260 488.804108,247.048981 
	C488.401428,246.431671 487.909058,245.752762 487.628937,245.093521 
	C483.163544,234.584793 474.420013,227.581207 467.081238,219.353256 
	C458.698486,209.954895 448.399567,203.607620 437.401794,198.115097 
	C434.886108,196.858688 434.821075,196.367783 436.350739,193.931900 
	C438.874298,189.913177 439.942780,184.942398 442.635895,181.077652 
	C446.492493,175.543259 450.861359,170.568008 456.479370,166.214233 
	C461.236145,162.527832 465.683624,158.266891 471.089966,155.518021 
	C479.282227,151.352646 488.259308,148.771622 497.280853,148.258820 
	C508.998199,147.592804 520.833069,147.255798 532.492004,150.615036 
	C539.303650,152.577667 545.626038,155.215988 551.993774,158.243683 
	C558.814514,161.486786 562.824646,167.409668 568.008789,172.218307 
	C569.454529,173.559311 570.656311,175.163223 572.001709,177.011566 
z"/>
<path fill="#FFFFFF" opacity="1.000000" stroke="none" 
	d="
M465.739197,846.288208 
	C454.284821,838.641479 446.129059,828.764771 440.986176,816.390808 
	C439.844421,813.643677 437.331909,810.737549 437.729187,808.271729 
	C438.183380,805.452759 442.268188,804.447510 444.813751,802.801758 
	C455.383026,795.968872 464.462189,787.468750 473.081207,778.408691 
	C481.988525,769.045715 488.554016,758.119324 493.951477,746.489807 
	C497.370056,739.124023 500.213562,731.493042 503.518646,724.071716 
	C504.303497,722.309387 505.904846,720.910706 507.308136,719.117981 
	C513.147644,726.961243 515.649475,736.282715 519.980835,744.678284 
	C528.250610,760.707764 538.253052,775.416870 551.344482,788.050415 
	C559.060669,795.496948 567.949585,801.270142 576.396545,807.680969 
	C577.405029,808.446350 578.502502,808.941711 577.932251,810.173096 
	C572.619080,821.647278 567.774170,833.726379 557.528320,841.674194 
	C548.151489,848.947815 537.377197,853.738586 525.161194,855.191345 
	C518.666748,855.963684 512.260559,857.030273 505.675049,857.054688 
	C491.477356,857.107300 478.315277,853.541016 465.739197,846.288208 
z"/>
<path fill="#FFFFFF" opacity="1.000000" stroke="none" 
	d="
M203.983902,478.111755 
	C207.355881,482.565918 208.214096,487.999054 211.117111,492.150604 
	C216.010605,499.148773 213.773499,505.524017 210.479584,511.860321 
	C208.844528,515.005615 208.988235,518.425903 207.815933,521.600464 
	C202.558212,535.838074 199.173233,550.545776 196.971649,565.548462 
	C195.901810,572.838867 194.973618,573.169006 188.497421,570.172791 
	C180.512024,566.478271 173.788986,561.124573 167.579636,555.037109 
	C163.154129,550.698547 158.810974,546.357483 152.730377,544.210388 
	C148.606720,542.754395 143.495956,545.831238 142.981094,550.299500 
	C142.542191,554.108582 144.098099,557.159973 145.817780,560.394897 
	C152.255768,572.505188 162.883087,580.203613 173.946335,587.378784 
	C183.306213,593.449158 192.768753,599.406799 202.531784,604.786621 
	C206.207764,606.812317 209.963272,609.069153 214.219040,610.139709 
	C215.493927,610.460388 218.842072,611.173645 215.680893,613.890869 
	C215.174637,614.326050 215.287598,615.417542 214.961029,616.135864 
	C212.121399,622.382324 209.032120,623.178345 202.497360,621.022583 
	C192.281784,617.652649 183.661743,611.476990 174.622177,606.068237 
	C168.040375,602.130005 163.350464,596.239502 158.745270,589.993835 
	C154.093781,583.685425 149.433014,577.489685 146.126511,570.406189 
	C140.986313,559.394287 136.508545,548.133484 135.017609,535.928223 
	C133.951996,527.204956 131.895828,518.635132 131.922058,509.737671 
	C131.961731,496.284454 133.249435,483.120087 135.581223,469.779724 
	C138.416473,453.559265 142.883835,438.014954 151.601959,424.473267 
	C160.411285,410.789886 171.871979,398.845978 187.989609,393.074036 
	C192.403885,391.493286 195.729965,387.917419 200.473801,386.961578 
	C203.727402,386.306000 206.801926,384.778870 210.050491,384.075409 
	C212.563660,383.531189 218.197372,389.869110 218.016556,392.572693 
	C217.946411,393.621460 217.314178,393.665955 216.535645,394.060089 
	C204.987671,399.906342 193.007843,404.852478 182.023224,411.881317 
	C173.381592,417.410950 165.230118,423.422852 157.258240,429.880035 
	C150.832825,435.084564 146.803879,441.369171 144.804947,448.911469 
	C143.756683,452.866791 141.750305,457.481750 146.471252,461.376495 
	C149.173325,463.605682 151.057999,463.424072 153.634979,461.894379 
	C159.001190,458.709015 163.424789,454.319672 168.049911,450.266632 
	C173.515457,445.477081 179.211060,441.099152 185.347702,437.259796 
	C190.117371,434.275696 191.918777,435.685944 193.111023,441.413696 
	C195.688690,453.797211 198.930740,466.037262 203.983902,478.111755 
z"/>
<path fill="#FFFFFF" opacity="1.000000" stroke="none" 
	d="
M805.692505,525.266968 
	C802.647766,517.821838 800.092773,510.596832 796.952576,503.635803 
	C796.030212,501.591003 795.465759,499.675293 796.489990,498.116913 
	C803.990601,486.704529 808.104309,473.905426 811.936096,461.003448 
	C814.170410,453.480255 817.156372,446.164520 818.113586,438.260315 
	C818.360901,436.218231 818.950195,434.269165 822.629395,435.772034 
	C832.446472,439.782043 839.468689,447.151886 846.612610,454.341827 
	C849.851135,457.601257 853.236267,460.465485 856.984863,463.049957 
	C859.844543,465.021637 862.835632,463.587585 864.640991,462.369263 
	C866.504700,461.111603 868.303467,458.105713 867.655396,455.263885 
	C865.398743,445.368256 861.137756,436.961334 852.987061,430.024261 
	C846.353333,424.378143 839.575378,418.752167 832.603516,413.718414 
	C827.229187,409.838165 820.670715,406.985168 814.466919,404.020996 
	C807.722839,400.798737 800.907043,397.726349 794.113953,394.607239 
	C792.499939,393.866150 791.471313,393.571655 793.059082,391.272064 
	C797.905090,384.253998 800.286072,383.272461 809.689392,385.923187 
	C824.150452,389.999634 836.820984,397.351624 847.329102,407.970886 
	C857.971741,418.726196 864.858093,431.650970 869.248596,446.316956 
	C872.353394,456.688202 874.059448,467.297943 876.825195,477.694122 
	C877.793335,481.332977 877.383118,485.242004 877.606934,488.932709 
	C877.880737,493.445831 880.476624,497.421997 879.937378,501.812195 
	C878.713745,511.774384 877.249207,521.710083 875.700439,531.628113 
	C874.533569,539.101013 873.457153,546.659485 870.920044,553.787598 
	C866.804138,565.351624 862.651062,576.912048 853.827576,586.121338 
	C850.404053,589.694458 848.326782,594.411438 844.649780,597.996399 
	C838.186523,604.297852 830.681580,608.786621 822.885254,613.200928 
	C817.112244,616.469604 810.915405,618.489380 805.080139,621.427490 
	C801.516663,623.221863 797.201111,621.369934 795.270142,616.308533 
	C794.515991,614.331482 793.106689,613.120361 792.112610,611.213135 
	C805.556091,606.684937 818.279480,600.089294 829.529480,592.152649 
	C841.145081,583.958130 855.201233,578.053284 862.839172,564.730652 
	C865.246521,560.531677 867.582825,556.359375 868.741943,551.636597 
	C869.619751,548.059692 867.909851,545.648438 864.929382,544.014832 
	C862.107056,542.467834 859.876465,541.095825 856.257263,543.947998 
	C847.087158,551.174683 839.040833,559.707153 829.602417,566.524780 
	C826.849304,568.513489 823.482422,569.916260 820.476807,571.754700 
	C819.172546,572.552551 818.674316,571.687317 817.828247,570.215332 
	C815.129822,565.520508 815.499939,560.169983 814.305664,555.244019 
	C811.879395,545.236633 808.611450,535.505493 805.692505,525.266968 
z"/>
<path fill="#FFFFFF" opacity="1.000000" stroke="none" 
	d="
M323.460388,467.783844 
	C330.239014,468.989960 336.641663,469.931946 343.010406,471.064331 
	C345.424927,471.493652 346.089661,473.172485 346.069702,475.679749 
	C345.980164,486.930481 345.987579,498.171783 345.062866,509.404480 
	C344.682617,514.023621 344.861603,518.705872 345.053009,523.348450 
	C345.160950,525.966187 344.710541,526.995911 341.664917,527.097778 
	C327.409698,527.574585 313.917633,532.098267 301.683105,538.627747 
	C294.825165,542.287781 287.534637,545.681519 281.099060,550.332336 
	C278.559143,552.167847 276.232910,552.110718 274.337250,548.872864 
	C268.668762,539.190735 263.299927,529.263000 256.764557,520.186890 
	C253.266220,515.328552 250.907455,509.758026 246.850281,505.314819 
	C244.403122,502.634857 244.938339,500.006348 246.485901,496.889679 
	C251.898178,485.989716 259.955353,476.816376 266.003052,466.365845 
	C268.723450,461.664917 271.332550,456.895355 274.029907,452.181976 
	C276.486084,447.890045 279.280121,448.949982 281.937592,450.551910 
	C291.642517,456.401978 302.120300,460.086853 312.946594,463.212494 
	C316.346985,464.194214 319.496490,466.550812 323.460388,467.783844 
z"/>
<path fill="#FFFFFF" opacity="1.000000" stroke="none" 
	d="
M665.000000,509.018097 
	C665.059875,496.934509 666.578918,485.396545 666.049133,473.781250 
	C665.833557,469.056030 670.281738,470.202271 672.399109,470.201935 
	C679.034241,470.200928 685.562988,468.899078 691.410522,466.587494 
	C703.010620,462.001801 715.167358,458.683594 726.089172,452.428589 
	C728.575073,451.004883 731.825928,450.891144 733.387939,448.013733 
	C741.069946,456.993958 744.719177,468.379150 751.946106,477.417908 
	C757.282715,484.092438 760.351074,491.992157 764.973938,499.016632 
	C765.853821,500.353546 766.392822,501.594116 765.236206,503.456543 
	C762.123901,508.468353 760.134766,514.346802 756.358215,518.723694 
	C753.312683,522.253296 750.832092,526.093994 748.060303,529.755249 
	C743.231262,536.133911 741.043335,544.171265 735.442261,550.103394 
	C734.679260,550.911438 734.859558,552.999756 732.828125,551.365479 
	C727.320007,546.934082 720.202759,545.246582 714.631348,540.968079 
	C706.878967,535.014771 697.366211,533.478149 688.523987,530.352417 
	C682.355530,528.171875 675.587402,529.270569 669.114319,528.520325 
	C666.109619,528.172058 664.663025,527.442017 664.913574,524.000183 
	C665.263245,519.194885 665.000610,514.345093 665.000000,509.018097 
z"/>
<path fill="#FFFFFF" opacity="1.000000" stroke="none" 
	d="
M605.918518,311.992615 
	C599.764160,309.997742 594.649170,306.728516 589.226501,304.092957 
	C579.738647,299.481628 569.524597,296.301239 560.188110,291.605804 
	C553.029846,288.005798 545.534668,287.063354 538.199341,284.318451 
	C542.351074,273.925232 546.897766,263.231873 553.125916,253.688736 
	C558.522583,245.419647 563.752869,236.739349 571.403992,230.040344 
	C576.918762,225.211853 583.013367,221.387543 589.397644,217.839706 
	C592.536377,216.095474 593.959473,217.373154 595.108215,219.666016 
	C597.665222,224.769867 599.569946,230.342880 602.338623,235.159119 
	C607.111389,243.461792 610.119141,252.365631 613.432800,261.147247 
	C617.500366,271.927124 622.437988,282.334351 626.852600,292.946411 
	C629.639893,299.646393 634.249756,305.795959 636.945740,312.658142 
	C639.287415,318.618378 642.967896,324.121796 644.388855,330.937103 
	C630.848633,325.251678 618.460022,318.888123 605.918518,311.992615 
z"/>
<path fill="#FFFFFF" opacity="1.000000" stroke="none" 
	d="
M570.307190,774.803284 
	C556.121643,763.391479 548.326660,748.022156 540.986755,732.335693 
	C539.225464,728.571472 537.889282,724.472351 535.450012,721.204834 
	C533.531494,718.634888 535.532715,718.466187 536.604797,718.211670 
	C551.170166,714.754517 564.804504,708.729919 578.489014,702.918945 
	C586.661743,699.448547 594.363098,694.910156 602.243469,690.835693 
	C609.391602,687.140015 616.900452,683.676025 624.625305,681.056213 
	C630.050720,679.216187 635.254517,676.209534 641.998413,677.174622 
	C635.302124,684.858887 633.442444,694.775024 627.862244,702.935913 
	C623.667847,709.070007 621.316956,716.479736 618.258545,723.371765 
	C613.782837,733.457214 610.090759,743.962402 604.801147,753.594849 
	C599.377380,763.471436 595.507202,773.981812 590.470886,783.980347 
	C590.058655,784.798706 589.945312,787.224243 587.954102,785.429993 
	C582.838989,780.820496 575.960327,779.195862 570.307190,774.803284 
z"/>
<path fill="#FFFFFF" opacity="1.000000" stroke="none" 
	d="
M420.000549,227.985626 
	C420.360229,227.033508 420.732971,226.492981 420.999268,225.904282 
	C425.024902,217.005371 425.265533,216.623428 433.809753,222.101532 
	C441.401886,226.969193 448.158386,232.781235 454.342163,239.714569 
	C460.460968,246.575012 464.888855,254.131882 469.300385,261.876007 
	C472.809509,268.036072 475.052399,274.890289 479.684204,280.460236 
	C480.572601,281.528595 480.219055,282.545197 478.253418,283.101776 
	C472.167236,284.825043 466.020264,286.574738 460.247192,289.111450 
	C448.989563,294.057983 437.481201,298.423096 426.254852,303.335999 
	C416.943909,307.410645 407.558014,311.621826 398.503998,316.468872 
	C392.576904,319.641968 385.848114,321.867432 378.996490,322.978546 
	C378.360931,323.081604 377.737335,324.440857 377.099457,323.224487 
	C376.851959,322.752502 377.006439,321.857941 377.302917,321.343140 
	C387.265625,304.044861 393.356506,284.987000 401.990906,267.087433 
	C405.960876,258.857422 410.145264,250.721298 413.810181,242.357559 
	C415.853088,237.695419 417.342804,232.789185 420.000549,227.985626 
z"/>
<path fill="#FFFFFF" opacity="1.000000" stroke="none" 
	d="
M398.997559,726.988953 
	C394.935760,719.351562 392.927917,711.113525 388.777771,704.051819 
	C384.823029,697.322510 384.062042,689.266418 379.100494,683.083984 
	C378.391510,682.200623 377.837799,680.285889 378.308746,679.557434 
	C379.196716,678.183960 380.528290,679.419983 381.727936,679.936218 
	C389.651215,683.345947 398.147522,685.783630 405.442047,690.210632 
	C416.373138,696.844421 428.309418,700.997620 439.722717,706.408630 
	C446.135315,709.448792 452.948364,711.232483 459.479919,713.840637 
	C465.772705,716.353333 472.112427,718.422546 478.936920,719.130859 
	C482.382324,719.488403 480.121826,723.084656 479.602020,723.495728 
	C474.615936,727.438904 473.073151,733.407288 470.956635,738.730896 
	C467.113739,748.396790 460.972351,756.686890 455.491180,765.237061 
	C452.722412,769.556091 447.050323,772.710388 442.321655,775.728760 
	C437.913269,778.542664 433.763428,781.810547 428.849152,784.032654 
	C425.866669,785.381165 424.842346,783.945679 424.305023,782.519958 
	C419.356903,769.390564 413.431305,756.700073 406.924133,744.307312 
	C404.015198,738.767273 402.311462,732.713257 398.997559,726.988953 
z"/>
<path fill="#FFFFFF" opacity="1.000000" stroke="none" 
	d="
M339.020142,775.071289 
	C342.362854,762.929504 345.416809,751.120361 349.108093,739.513977 
	C351.332947,732.518433 353.443573,725.465149 356.505280,718.703552 
	C358.571014,714.141418 359.257446,708.954773 361.177063,703.837280 
	C372.469604,735.279968 388.332062,764.590942 401.879822,794.960693 
	C388.888611,802.360718 362.773682,807.356323 330.846893,801.522766 
	C333.571320,792.823364 336.285583,784.156372 339.020142,775.071289 
z"/>
<path fill="#FFFFFF" opacity="1.000000" stroke="none" 
	d="
M358.991638,292.951355 
	C351.815857,272.863953 345.087585,253.082001 339.754089,232.801102 
	C337.491608,224.197830 333.675018,215.975388 331.978607,207.139862 
	C331.947784,206.979416 331.939301,206.808578 331.876556,206.661255 
	C329.814178,201.817337 329.985352,202.418747 335.381134,200.875061 
	C347.622009,197.373047 360.063263,198.877884 372.319427,199.299850 
	C381.488617,199.615555 390.569366,202.638367 399.272308,206.063751 
	C401.028595,206.755005 400.575043,207.771820 400.010986,209.022186 
	C393.906921,222.553574 388.704224,236.586136 381.483765,249.490555 
	C375.296570,260.548340 371.457397,272.460541 366.086182,283.770813 
	C363.847870,288.484039 363.347168,293.909515 360.461395,299.005005 
	C359.522400,296.937714 360.730896,294.706696 358.991638,292.951355 
z"/>
<path fill="#FFFFFF" opacity="1.000000" stroke="none" 
	d="
M616.015991,789.107178 
	C620.288208,780.481567 623.863586,771.912842 627.970276,763.633057 
	C633.321350,752.844421 638.210205,741.892761 642.741150,730.756897 
	C645.801086,723.236328 648.982422,715.763062 651.882080,708.181641 
	C652.361328,706.928833 652.349731,705.303345 653.808777,705.133545 
	C655.920105,704.887878 655.260010,707.249146 655.417175,708.062012 
	C657.154419,717.050171 659.999268,725.761902 662.225159,734.611267 
	C664.602905,744.064392 667.355225,753.465210 670.023987,762.866211 
	C672.338440,771.019043 674.559082,779.203125 677.112854,787.281250 
	C678.168335,790.619568 680.097900,793.671570 681.421814,796.938110 
	C682.613525,799.878235 682.860291,801.665955 678.295288,802.195068 
	C668.476990,803.333191 658.701111,804.278442 648.811157,804.015747 
	C637.221130,803.707764 626.124023,800.695984 614.992493,797.916565 
	C612.850891,797.381775 612.097107,795.671509 613.790833,793.752563 
	C614.900452,792.495361 615.625916,791.106262 616.015991,789.107178 
z"/>
<path fill="#FFFFFF" opacity="1.000000" stroke="none" 
	d="
M664.926086,198.998978 
	C671.519653,198.637466 677.394897,200.332260 683.381165,201.027344 
	C686.171814,201.351379 685.153687,203.450287 684.608032,204.740280 
	C681.805420,211.366745 681.235596,218.583557 677.746704,225.205460 
	C674.172852,231.988632 673.064819,240.091965 671.023987,247.656967 
	C667.941040,259.084839 665.533691,270.733002 661.742065,281.915527 
	C659.863831,287.454926 658.847107,293.232391 656.861572,299.575928 
	C653.889893,288.649384 649.303528,279.358643 645.836426,269.647949 
	C642.216858,259.510406 637.788818,249.664474 633.972046,239.593338 
	C631.073975,231.946289 625.993042,225.438095 623.116882,217.765137 
	C621.851990,214.390717 620.489929,210.914322 618.049683,208.009857 
	C616.076050,205.660889 618.632324,204.935364 620.013428,204.555222 
	C626.045776,202.894897 632.134338,201.428528 638.230591,200.012863 
	C646.891541,198.001633 655.702820,199.394501 664.926086,198.998978 
z"/>
<path fill="#FFFFFF" opacity="1.000000" stroke="none" 
	d="
M473.127502,693.002808 
	C459.510284,685.770081 444.837158,681.564880 432.217529,673.099609 
	C428.939667,670.900818 424.865021,670.068420 421.719116,667.363098 
	C419.479187,665.436951 418.886505,665.052002 421.899323,662.830750 
	C434.477875,653.557312 449.446716,649.138123 462.868652,641.734497 
	C471.304138,637.081482 480.210358,635.914307 489.157135,634.047913 
	C494.241852,632.987183 494.999359,633.737488 494.999603,639.140808 
	C495.000427,657.134644 494.882050,675.129944 495.092987,693.121277 
	C495.139221,697.065552 493.532074,697.859497 490.486908,696.716980 
	C484.996979,694.657410 478.932831,695.403442 473.127502,693.002808 
z"/>
<path fill="#FFFFFF" opacity="1.000000" stroke="none" 
	d="
M686.266785,622.292725 
	C682.386963,628.416626 678.946228,634.380554 672.650391,637.976990 
	C671.403564,638.689331 670.304260,639.259766 669.029358,638.907837 
	C667.163818,638.393005 668.117981,636.712524 668.033997,635.567810 
	C666.697693,617.355774 667.498474,599.091553 666.787842,580.879578 
	C666.466187,572.637268 666.338318,564.381775 665.913330,556.144958 
	C665.724182,552.478088 666.985962,551.611084 670.353821,551.953796 
	C677.456421,552.676514 684.248047,554.669495 691.088684,556.525513 
	C696.170105,557.904175 700.906494,560.323242 705.549133,562.525635 
	C710.575562,564.910095 714.332092,569.743286 719.219299,572.783020 
	C720.381958,573.506165 720.351074,574.873779 719.584717,575.877380 
	C714.153687,582.989746 710.212830,591.074097 703.531311,597.449951 
	C698.490356,602.260254 694.766846,608.623779 691.211487,614.735046 
	C689.745483,617.255005 687.447754,619.197266 686.266785,622.292725 
z"/>
<path fill="#FFFFFF" opacity="1.000000" stroke="none" 
	d="
M324.720612,619.269897 
	C318.422577,609.821289 311.882385,601.092712 304.762024,592.662964 
	C300.199066,587.260803 296.165710,581.016907 292.393311,574.823547 
	C291.322540,573.065613 292.461456,572.106018 294.001038,570.928162 
	C308.754028,559.641541 326.247711,555.314514 343.781311,551.076294 
	C344.727966,550.847412 346.014069,550.504028 345.839264,552.664124 
	C345.119507,561.558167 345.736053,570.474182 345.281921,579.419678 
	C344.345154,597.869995 345.020996,616.401062 344.953125,634.898621 
	C344.948242,636.227905 345.911621,638.228394 344.116669,638.828552 
	C342.271271,639.445557 340.264160,639.251831 338.791718,637.322144 
	C334.239685,631.356323 329.580505,625.472229 324.720612,619.269897 
z"/>
<path fill="#FFFFFF" opacity="1.000000" stroke="none" 
	d="
M310.997620,402.026733 
	C317.409668,395.522827 321.444000,387.623993 326.711945,380.647034 
	C331.378662,374.466370 336.144531,368.478180 343.044037,364.571198 
	C344.260315,363.882507 344.473999,364.120544 345.130341,365.214874 
	C346.055389,366.757233 345.998016,368.318329 345.998260,369.937775 
	C346.002014,393.889893 345.917633,417.842621 346.091248,441.793457 
	C346.116974,445.339630 345.182770,446.466431 341.718628,446.034271 
	C332.765656,444.917358 324.187408,442.886292 316.033691,438.695648 
	C309.373505,435.272552 302.165161,432.927734 295.266541,429.950287 
	C293.013458,428.977844 291.247437,428.289062 293.465759,424.685272 
	C298.481415,416.536987 304.506592,409.326599 310.997620,402.026733 
z"/>
<path fill="#FFFFFF" opacity="1.000000" stroke="none" 
	d="
M527.975891,635.001221 
	C533.518066,636.340393 539.309570,636.575989 543.599121,639.234680 
	C554.466187,645.970337 566.800964,649.318665 577.917114,655.367676 
	C582.536438,657.881348 587.526489,659.667542 591.801758,662.889587 
	C592.903137,663.719666 593.988525,664.158997 593.996643,665.702393 
	C594.007202,667.705383 592.296509,666.749573 591.420288,667.193359 
	C579.665405,673.147705 567.930603,679.144653 556.097229,684.939941 
	C552.093384,686.900757 547.945190,688.883545 543.638367,689.794800 
	C540.879761,690.378540 539.257141,692.411072 536.741577,693.302307 
	C532.352295,694.857117 527.781982,694.430725 523.253540,695.949097 
	C523.253540,675.315735 523.253540,654.767395 523.253540,634.151428 
	C524.747986,634.447571 526.144653,634.724304 527.975891,635.001221 
z"/>
<path fill="#FFFFFF" opacity="1.000000" stroke="none" 
	d="
M694.195068,393.690552 
	C703.078064,403.957764 711.820679,413.862457 718.712463,425.216858 
	C719.895752,427.166382 719.305176,427.836487 717.491516,428.958710 
	C710.072021,433.549377 701.552551,435.475220 693.783997,439.115326 
	C687.312988,442.147400 680.760376,444.375763 673.766479,445.747375 
	C667.160767,447.042877 666.000488,446.424255 666.000183,439.822357 
	C665.999573,426.492401 665.339478,413.119751 666.197510,399.845245 
	C666.965820,387.958099 666.403320,375.956055 668.513672,364.085907 
	C680.247009,371.179993 687.217590,382.193970 694.195068,393.690552 
z"/>
<path fill="#FFFFFF" opacity="1.000000" stroke="none" 
	d="
M470.875977,312.979126 
	C475.752197,310.554840 480.789337,310.212402 485.588287,309.020294 
	C486.373413,308.825287 487.290009,309.147369 488.068512,308.940125 
	C490.281921,308.350983 492.802277,305.830536 494.556946,307.701141 
	C495.747711,308.970581 494.729858,312.157043 495.030212,314.442749 
	C496.524658,325.815704 495.651855,337.249268 496.115112,348.641449 
	C496.279968,352.695465 494.819702,353.519775 491.376099,353.006805 
	C480.086517,351.325226 469.084106,348.718872 458.597168,344.006531 
	C451.241974,340.701477 445.327454,334.875824 437.361298,332.552490 
	C434.702454,331.777008 436.244263,330.065613 438.198761,328.925079 
	C445.142273,324.873291 452.309326,321.289093 459.648651,318.031128 
	C463.283600,316.417572 466.386505,313.661255 470.875977,312.979126 
z"/>
<path fill="#FFFFFF" opacity="1.000000" stroke="none" 
	d="
M523.976196,312.813477 
	C523.527100,308.165283 523.923828,306.143677 529.387451,307.753326 
	C534.728088,309.326874 540.430603,310.072937 545.535095,312.317047 
	C553.732178,315.920776 561.696655,320.074585 569.638916,324.226624 
	C572.732849,325.844116 575.563477,327.973389 578.953369,329.011688 
	C579.987427,329.328430 580.890808,329.924194 580.890503,330.958862 
	C580.890137,332.515076 579.453125,331.795410 578.630432,332.047760 
	C568.181824,335.253204 558.840332,340.999084 548.762146,345.069092 
	C541.768311,347.893555 534.876099,350.863342 527.158203,351.039398 
	C525.912231,351.067810 524.677917,351.608185 523.026978,352.012695 
	C523.026978,339.580048 523.014282,327.299103 523.066406,315.018463 
	C523.068909,314.435150 523.646301,313.854248 523.976196,312.813477 
z"/>
<path fill="#FFFFFF" opacity="1.000000" stroke="none" 
	d="
M787.300171,455.285583 
	C784.661926,462.207184 784.724609,469.592957 780.447815,475.673889 
	C775.324341,469.462921 772.838989,461.572388 767.779846,455.373444 
	C762.644104,449.080566 760.524292,440.609039 753.417053,435.732147 
	C752.658936,435.211914 752.486694,433.879059 753.974060,432.958282 
	C761.079468,428.559509 767.375549,423.136902 773.336914,417.296631 
	C773.970154,416.676239 774.761047,416.583771 775.095032,415.369446 
	C776.228577,411.248596 779.691650,412.552490 781.175598,414.196289 
	C784.616150,418.007477 789.130432,420.039001 793.275818,422.577637 
	C796.920471,424.809631 796.480713,427.224030 795.252075,430.308807 
	C792.058472,438.326508 789.891235,446.667969 787.300171,455.285583 
z"/>
<path fill="#FEFEFE" opacity="1.000000" stroke="none" 
	d="
M241.998474,457.040894 
	C238.689148,462.707092 235.188370,467.861237 232.683075,473.610352 
	C232.223099,474.665833 231.206543,476.235565 229.745590,475.791870 
	C228.970490,475.556427 228.283707,474.106903 228.067734,473.096313 
	C225.889175,462.902649 221.788696,453.268860 219.276138,443.214172 
	C217.730133,437.027466 217.172775,430.568268 215.099670,424.454224 
	C214.580414,422.922821 215.303482,422.119995 216.825012,421.596497 
	C222.340225,419.699036 227.450256,416.907410 231.990829,413.316895 
	C233.886276,411.817963 234.533615,412.796448 235.366440,413.899933 
	C241.350494,421.828705 248.575500,428.444397 256.618073,434.213593 
	C250.429901,440.836151 248.136215,449.989075 241.998474,457.040894 
z"/>
<path fill="#FEFEFE" opacity="1.000000" stroke="none" 
	d="
M792.001587,574.818237 
	C794.140808,580.017517 793.215881,583.661682 788.270630,585.998962 
	C786.117493,587.016602 784.466858,588.709290 782.892639,590.496521 
	C780.659180,593.032104 777.972656,592.195435 775.775330,589.679565 
	C771.848877,585.183899 767.595764,580.877686 762.966553,577.124634 
	C759.761353,574.526001 757.525208,570.900696 753.789124,568.923828 
	C752.506897,568.245422 753.451660,567.853882 753.947021,566.929993 
	C758.043091,559.291260 764.130554,553.030457 768.357727,545.449219 
	C771.308044,540.157959 773.266418,534.208923 777.664001,529.744751 
	C778.260254,529.139465 778.090454,527.516541 779.521851,528.159363 
	C780.161255,528.446533 780.746704,529.333008 780.941650,530.058960 
	C784.142883,541.980103 788.320435,553.633667 790.203125,565.927979 
	C790.626404,568.691956 792.361572,571.328064 792.001587,574.818237 
z"/>
<path fill="#FEFEFE" opacity="1.000000" stroke="none" 
	d="
M219.978058,575.972717 
	C222.319641,563.870422 225.239822,552.339722 227.795578,540.734863 
	C228.738678,536.452515 232.073227,532.904968 230.922638,527.629395 
	C234.290543,529.475891 235.789459,532.386719 236.822937,534.848267 
	C240.736420,544.169617 247.653290,551.521973 252.530060,560.160217 
	C254.030670,562.818176 258.014404,563.343628 257.998047,567.064270 
	C257.981293,570.872192 254.067429,571.075562 252.199875,573.198853 
	C248.445786,577.466980 244.182693,581.284424 240.186981,585.344360 
	C238.474136,587.084839 236.760162,588.761841 235.422516,590.928711 
	C233.209122,594.514404 229.894089,594.403503 227.442780,590.820007 
	C226.325226,589.186279 225.420578,587.761780 223.462494,586.810486 
	C218.228485,584.267639 217.799774,582.570129 219.978058,575.972717 
z"/>
<path fill="#FEFEFE" opacity="1.000000" stroke="none" 
	d="
M281.196716,618.693237 
	C272.374756,617.424316 265.500824,612.228882 257.772522,609.208252 
	C252.238052,607.045227 252.585144,606.907654 257.144928,603.196777 
	C260.859558,600.173645 264.059113,596.509155 267.423096,593.066650 
	C269.590210,590.848999 270.881378,589.850586 273.324860,593.424744 
	C277.575531,599.642212 282.726318,605.252136 287.596008,611.035767 
	C290.805908,614.848206 292.116058,619.926697 296.498383,622.926025 
	C296.249023,623.254761 295.999664,623.583557 295.750305,623.912354 
	C290.995392,622.272949 286.240479,620.633484 281.196716,618.693237 
z"/>
<path fill="#FEFEFE" opacity="1.000000" stroke="none" 
	d="
M260.829834,407.327026 
	C257.871246,404.682739 255.164139,402.299530 252.437637,399.938751 
	C250.733002,398.462799 251.107605,397.300629 253.165894,397.057404 
	C259.220795,396.341888 265.161346,394.115265 269.613800,390.705017 
	C276.940125,385.093628 286.071564,385.547333 294.106079,381.797607 
	C285.676147,392.217651 277.246216,402.637695 268.702057,413.198944 
	C266.363068,410.667908 264.130341,408.545563 260.829834,407.327026 
z"/>
<path fill="#FEFEFE" opacity="1.000000" stroke="none" 
	d="
M734.390015,616.248291 
	C728.486084,618.263611 722.936951,620.071045 716.111816,622.294128 
	C721.562988,616.031433 724.259888,609.351135 729.755371,604.475403 
	C732.729126,601.837158 734.687744,598.033081 737.014160,594.692200 
	C739.978821,590.434570 741.276489,590.529968 744.739990,594.128723 
	C747.662659,597.165466 750.046875,600.964661 754.544495,602.282471 
	C755.621643,602.598022 757.041809,603.707397 756.877136,605.191040 
	C756.744263,606.388428 755.348083,606.535645 754.374023,607.099243 
	C748.797485,610.325806 742.203857,611.560425 737.195007,615.907227 
	C736.707092,616.330566 735.576904,616.013733 734.390015,616.248291 
z"/>
<path fill="#FEFEFE" opacity="1.000000" stroke="none" 
	d="
M720.624146,382.892212 
	C726.555725,384.387695 732.349121,385.156586 737.399109,388.036255 
	C743.819031,391.697052 750.797913,393.859894 757.684265,396.323364 
	C759.765137,397.067810 761.393311,398.487915 758.146606,399.949127 
	C752.416992,402.527954 748.259583,407.120850 743.521057,410.971893 
	C742.659546,411.672058 742.210083,412.685883 740.946472,411.054596 
	C733.779175,401.802124 726.435974,392.686005 719.174561,383.506104 
	C719.011536,383.299957 718.965454,382.764099 719.111328,382.596710 
	C719.499939,382.150513 719.930359,382.339203 720.624146,382.892212 
z"/>
<path fill="#000000" opacity="1.000000" stroke="none" 
	d="
M626.345093,458.208557 
	C623.249878,462.318878 619.596436,459.234009 617.473450,458.455322 
	C607.908508,454.947144 597.943909,452.204041 589.434143,446.130615 
	C577.880371,437.884674 567.751831,428.514252 561.915405,415.172089 
	C560.451111,411.824799 558.210571,408.798798 556.175720,405.725098 
	C554.437561,403.099609 554.038330,400.341278 556.348083,398.199860 
	C562.750854,392.263458 568.381531,385.432190 575.848083,380.710114 
	C579.281006,378.539001 582.678406,377.247864 586.868103,379.907135 
	C599.858704,388.152405 610.679749,398.626312 617.478821,412.333313 
	C622.833252,423.127777 626.383118,434.815887 625.992981,447.227844 
	C625.880554,450.804718 628.089478,454.234222 626.345093,458.208557 
z"/>
<path fill="#000000" opacity="1.000000" stroke="none" 
	d="
M392.980560,420.888794 
	C395.896851,411.780334 400.400940,404.182159 406.821869,397.466156 
	C411.604156,392.464081 416.245636,387.428680 421.413910,382.759216 
	C426.873047,377.826996 433.345459,378.618591 439.290771,382.747131 
	C445.713165,387.206940 450.320953,393.642792 456.642975,398.203918 
	C459.522339,400.281281 459.594482,404.171204 457.446564,405.726868 
	C452.018494,409.658173 451.162750,415.988495 448.159210,421.096344 
	C443.408997,429.174530 436.833618,435.797882 430.090118,441.611633 
	C420.808105,449.613861 409.239136,454.622559 397.227112,457.865692 
	C395.302551,458.385315 393.718292,459.419495 391.889648,460.011627 
	C388.633362,461.066040 386.498535,459.871368 387.100708,456.580872 
	C389.167542,445.286499 387.779358,433.484161 392.139801,422.547546 
	C392.320526,422.094238 392.684418,421.713989 392.980560,420.888794 
z"/>
<path fill="#000000" opacity="1.000000" stroke="none" 
	d="
M570.743042,560.686035 
	C576.066284,552.417358 584.437195,548.361328 591.740234,543.009583 
	C601.410339,535.923340 612.773926,532.971069 623.952515,529.523804 
	C627.384583,528.465393 626.951843,530.891724 626.981445,532.784668 
	C627.099731,540.340942 626.330933,547.857544 624.887695,555.235779 
	C622.067871,569.651855 615.992004,582.856628 606.784607,594.142456 
	C600.885742,601.372925 593.222839,607.273682 584.302551,610.796875 
	C579.781799,612.582458 571.043396,608.144714 569.114014,603.118774 
	C567.223511,598.194397 564.931152,593.763306 561.059998,590.052490 
	C556.343811,585.531616 559.506836,580.209229 561.285767,576.052917 
	C563.565247,570.727234 566.065063,565.146423 570.743042,560.686035 
z"/>
<path fill="#000000" opacity="1.000000" stroke="none" 
	d="
M435.664795,554.172241 
	C443.905243,562.603271 449.333832,572.285767 454.402008,582.507812 
	C456.820923,587.386658 453.561127,587.598694 452.062195,589.523193 
	C447.893127,594.876038 445.953888,601.659790 441.015472,606.502563 
	C435.853333,611.564758 432.436401,612.114868 425.684357,609.230713 
	C417.924866,605.916199 412.107819,600.141174 406.657623,594.049866 
	C398.481354,584.911804 392.757538,574.155396 389.393829,562.494141 
	C386.692535,553.129517 385.577759,543.308899 385.985474,533.436523 
	C386.097748,530.718079 386.920380,529.415405 389.953308,530.415039 
	C396.320923,532.513794 402.841797,534.508057 408.841736,537.241699 
	C418.328705,541.564026 427.228699,547.267883 435.664795,554.172241 
z"/>
</svg>